<svg width="20" height="20" viewBox="0 0 20 20" fill="none" xmlns="http://www.w3.org/2000/svg">
<g id="Home">
<rect width="20" height="20" fill="white"/>
<path id="Vector" d="M5.00016 17.5013C4.54183 17.5013 4.14961 17.3382 3.8235 17.0121C3.49683 16.6855 3.3335 16.293 3.3335 15.8346V8.33464C3.3335 8.07075 3.39266 7.82075 3.511 7.58464C3.62877 7.34853 3.79183 7.15408 4.00016 7.0013L9.00016 3.2513C9.15294 3.14019 9.31266 3.05686 9.47933 3.0013C9.646 2.94575 9.81961 2.91797 10.0002 2.91797C10.1807 2.91797 10.3543 2.94575 10.521 3.0013C10.6877 3.05686 10.8474 3.14019 11.0002 3.2513L16.0002 7.0013C16.2085 7.15408 16.3718 7.34853 16.4902 7.58464C16.6079 7.82075 16.6668 8.07075 16.6668 8.33464V15.8346C16.6668 16.293 16.5038 16.6855 16.1777 17.0121C15.851 17.3382 15.4585 17.5013 15.0002 17.5013H11.6668V11.668H8.3335V17.5013H5.00016Z" fill="#808080"/>
</g>
</svg>
