<svg xmlns="http://www.w3.org/2000/svg" viewBox="0 0 800 800">
  <!-- External Entities -->
  <rect x="20" y="150" width="120" height="60" fill="#f5f5f5" stroke="#333" stroke-width="2" rx="5" ry="5"/>
  <text x="80" y="185" font-family="Arial" font-size="16" text-anchor="middle">User</text>
  
  <rect x="20" y="250" width="120" height="60" fill="#f5f5f5" stroke="#333" stroke-width="2" rx="5" ry="5"/>
  <text x="80" y="285" font-family="Arial" font-size="16" text-anchor="middle">Vendor</text>
  
  <rect x="20" y="350" width="120" height="60" fill="#f5f5f5" stroke="#333" stroke-width="2" rx="5" ry="5"/>
  <text x="80" y="385" font-family="Arial" font-size="16" text-anchor="middle">Product</text>
  
  <rect x="20" y="450" width="120" height="60" fill="#f5f5f5" stroke="#333" stroke-width="2" rx="5" ry="5"/>
  <text x="80" y="485" font-family="Arial" font-size="16" text-anchor="middle">Service</text>
  
  <rect x="20" y="550" width="120" height="60" fill="#f5f5f5" stroke="#333" stroke-width="2" rx="5" ry="5"/>
  <text x="80" y="585" font-family="Arial" font-size="16" text-anchor="middle">Session</text>
  
  <rect x="20" y="650" width="120" height="60" fill="#f5f5f5" stroke="#333" stroke-width="2" rx="5" ry="5"/>
  <text x="80" y="685" font-family="Arial" font-size="16" text-anchor="middle">Privilege</text>
  
  <!-- Processes -->
  <rect x="300" y="150" width="200" height="60" fill="#e1f5fe" stroke="#0288d1" stroke-width="2" rx="10" ry="10"/>
  <text x="400" y="185" font-family="Arial" font-size="16" text-anchor="middle">User Management</text>
  
  <rect x="300" y="250" width="200" height="60" fill="#e1f5fe" stroke="#0288d1" stroke-width="2" rx="10" ry="10"/>
  <text x="400" y="285" font-family="Arial" font-size="16" text-anchor="middle">Vendor Management</text>
  
  <rect x="300" y="350" width="200" height="60" fill="#e1f5fe" stroke="#0288d1" stroke-width="2" rx="10" ry="10"/>
  <text x="400" y="385" font-family="Arial" font-size="16" text-anchor="middle">Product Management</text>
  
  <rect x="300" y="450" width="200" height="60" fill="#e1f5fe" stroke="#0288d1" stroke-width="2" rx="10" ry="10"/>
  <text x="400" y="485" font-family="Arial" font-size="16" text-anchor="middle">Service Management</text>
  
  <rect x="300" y="550" width="200" height="60" fill="#e1f5fe" stroke="#0288d1" stroke-width="2" rx="10" ry="10"/>
  <text x="400" y="585" font-family="Arial" font-size="16" text-anchor="middle">Session Management</text>
  
  <rect x="300" y="650" width="200" height="60" fill="#e1f5fe" stroke="#0288d1" stroke-width="2" rx="10" ry="10"/>
  <text x="400" y="685" font-family="Arial" font-size="16" text-anchor="middle">Privilege Management</text>
  
  <!-- Data Stores -->
  <rect x="660" y="150" width="120" height="60" fill="#fffde7" stroke="#fbc02d" stroke-width="2" rx="5" ry="5"/>
  <text x="720" y="185" font-family="Arial" font-size="16" text-anchor="middle">User Table</text>
  
  <rect x="660" y="250" width="120" height="60" fill="#fffde7" stroke="#fbc02d" stroke-width="2" rx="5" ry="5"/>
  <text x="720" y="285" font-family="Arial" font-size="16" text-anchor="middle">Vendor Table</text>
  
  <rect x="660" y="350" width="120" height="60" fill="#fffde7" stroke="#fbc02d" stroke-width="2" rx="5" ry="5"/>
  <text x="720" y="385" font-family="Arial" font-size="16" text-anchor="middle">Product Table</text>
  
  <rect x="660" y="450" width="120" height="60" fill="#fffde7" stroke="#fbc02d" stroke-width="2" rx="5" ry="5"/>
  <text x="720" y="485" font-family="Arial" font-size="16" text-anchor="middle">Service Table</text>
  
  <rect x="660" y="550" width="120" height="60" fill="#fffde7" stroke="#fbc02d" stroke-width="2" rx="5" ry="5"/>
  <text x="720" y="585" font-family="Arial" font-size="16" text-anchor="middle">Session Table</text>
  
  <rect x="660" y="650" width="120" height="60" fill="#fffde7" stroke="#fbc02d" stroke-width="2" rx="5" ry="5"/>
  <text x="720" y="685" font-family="Arial" font-size="16" text-anchor="middle">Privilege Table</text>
  
  <!-- Data Flows -->
  <!-- User flows -->
  <line x1="140" y1="180" x2="300" y2="180" stroke="#333" stroke-width="2" marker-end="url(#arrowhead)"/>
  <line x1="500" y1="180" x2="660" y2="180" stroke="#333" stroke-width="2" marker-end="url(#arrowhead)"/>
  
  <!-- Vendor flows -->
  <line x1="140" y1="280" x2="300" y2="280" stroke="#333" stroke-width="2" marker-end="url(#arrowhead)"/>
  <line x1="500" y1="280" x2="660" y2="280" stroke="#333" stroke-width="2" marker-end="url(#arrowhead)"/>
  
  <!-- Product flows -->
  <line x1="140" y1="380" x2="300" y2="380" stroke="#333" stroke-width="2" marker-end="url(#arrowhead)"/>
  <line x1="500" y1="380" x2="660" y2="380" stroke="#333" stroke-width="2" marker-end="url(#arrowhead)"/>
  
  <!-- Service flows -->
  <line x1="140" y1="480" x2="300" y2="480" stroke="#333" stroke-width="2" marker-end="url(#arrowhead)"/>
  <line x1="500" y1="480" x2="660" y2="480" stroke="#333" stroke-width="2" marker-end="url(#arrowhead)"/>
  
  <!-- Session flows -->
  <line x1="140" y1="580" x2="300" y2="580" stroke="#333" stroke-width="2" marker-end="url(#arrowhead)"/>
  <line x1="500" y1="580" x2="660" y2="580" stroke="#333" stroke-width="2" marker-end="url(#arrowhead)"/>
  
  <!-- Privilege flows -->
  <line x1="140" y1="680" x2="300" y2="680" stroke="#333" stroke-width="2" marker-end="url(#arrowhead)"/>
  <line x1="500" y1="680" x2="660" y2="680" stroke="#333" stroke-width="2" marker-end="url(#arrowhead)"/>
  
  <!-- Title -->
  <text x="400" y="60" font-family="Arial" font-size="24" text-anchor="middle" font-weight="bold">DFD Level 1: Afrobuild Database System</text>
  
  <!-- Arrowhead definition -->
  <defs>
    <marker id="arrowhead" markerWidth="10" markerHeight="7" refX="9" refY="3.5" orient="auto">
      <polygon points="0 0, 10 3.5, 0 7" fill="#333"/>
    </marker>
  </defs>
</svg>
